<?xml version="1.0" encoding="UTF-8" standalone="no"?>
<!DOCTYPE svg PUBLIC "-//W3C//DTD SVG 1.1//EN"
 "http://www.w3.org/Graphics/SVG/1.1/DTD/svg11.dtd">
<!-- Generated by graphviz version 5.0.0 (20220707.1540)
 -->
<!-- Title: dependencies Pages: 1 -->
<svg width="5101pt" height="247pt"
 viewBox="0.00 0.00 5101.00 246.80" xmlns="http://www.w3.org/2000/svg" xmlns:xlink="http://www.w3.org/1999/xlink">
<g id="graph0" class="graph" transform="scale(1 1) rotate(0) translate(4 242.8)">
<title>dependencies</title>
<polygon fill="white" stroke="transparent" points="-4,4 -4,-242.8 5097,-242.8 5097,4 -4,4"/>
<text text-anchor="middle" x="2546.5" y="-8.2" font-family="sans-serif" font-size="14.00">dependencies</text>
<g id="clust1" class="cluster">
<title>cluster_AppModule</title>
<polygon fill="none" stroke="black" stroke-dasharray="1,5" points="8,-32.8 8,-230.8 5085,-230.8 5085,-32.8 8,-32.8"/>
</g>
<g id="clust2" class="cluster">
<title>cluster_AppModule_declarations</title>
<polygon fill="none" stroke="black" points="326,-40.8 326,-92.8 5077,-92.8 5077,-40.8 326,-40.8"/>
</g>
<g id="clust36" class="cluster">
<title>cluster_AppModule_providers</title>
<polygon fill="none" stroke="black" points="168,-40.8 168,-92.8 318,-92.8 318,-40.8 168,-40.8"/>
</g>
<g id="clust33" class="cluster">
<title>cluster_AppModule_imports</title>
<polygon fill="none" stroke="black" points="16,-40.8 16,-92.8 160,-92.8 160,-40.8 16,-40.8"/>
</g>
<g id="clust35" class="cluster">
<title>cluster_AppModule_bootstrap</title>
<polygon fill="none" stroke="black" points="2539,-170.8 2539,-222.8 2663,-222.8 2663,-170.8 2539,-170.8"/>
</g>
<!-- AboutUsComponent -->
<g id="node1" class="node">
<title>AboutUsComponent</title>
<polygon fill="#ffffb3" stroke="black" points="5068.89,-84.8 4937.11,-84.8 4937.11,-48.8 5068.89,-48.8 5068.89,-84.8"/>
<text text-anchor="middle" x="5003" y="-62.6" font-family="Times,serif" font-size="14.00">AboutUsComponent</text>
</g>
<!-- AppModule -->
<g id="node31" class="node">
<title>AppModule</title>
<polygon fill="#8dd3c7" stroke="black" points="2642.66,-149.8 2639.66,-153.8 2618.66,-153.8 2615.66,-149.8 2559.34,-149.8 2559.34,-113.8 2642.66,-113.8 2642.66,-149.8"/>
<text text-anchor="middle" x="2601" y="-127.6" font-family="Times,serif" font-size="14.00">AppModule</text>
</g>
<!-- AboutUsComponent&#45;&gt;AppModule -->
<g id="edge1" class="edge">
<title>AboutUsComponent&#45;&gt;AppModule</title>
<path fill="none" stroke="black" d="M5003,-85.18C5003,-109.08 5003,-147.8 5003,-147.8 5003,-147.8 2652.69,-147.8 2652.69,-147.8"/>
<polygon fill="black" stroke="black" points="2652.69,-144.3 2642.69,-147.8 2652.69,-151.3 2652.69,-144.3"/>
</g>
<!-- AddAuthorComponent -->
<g id="node2" class="node">
<title>AddAuthorComponent</title>
<polygon fill="#ffffb3" stroke="black" points="4919.6,-84.8 4774.4,-84.8 4774.4,-48.8 4919.6,-48.8 4919.6,-84.8"/>
<text text-anchor="middle" x="4847" y="-62.6" font-family="Times,serif" font-size="14.00">AddAuthorComponent</text>
</g>
<!-- AddAuthorComponent&#45;&gt;AppModule -->
<g id="edge2" class="edge">
<title>AddAuthorComponent&#45;&gt;AppModule</title>
<path fill="none" stroke="black" d="M4847,-85.12C4847,-108.46 4847,-145.8 4847,-145.8 4847,-145.8 2652.88,-145.8 2652.88,-145.8"/>
<polygon fill="black" stroke="black" points="2652.88,-142.3 2642.88,-145.8 2652.88,-149.3 2652.88,-142.3"/>
</g>
<!-- AddBookComponent -->
<g id="node3" class="node">
<title>AddBookComponent</title>
<polygon fill="#ffffb3" stroke="black" points="4756.78,-84.8 4621.22,-84.8 4621.22,-48.8 4756.78,-48.8 4756.78,-84.8"/>
<text text-anchor="middle" x="4689" y="-62.6" font-family="Times,serif" font-size="14.00">AddBookComponent</text>
</g>
<!-- AddBookComponent&#45;&gt;AppModule -->
<g id="edge3" class="edge">
<title>AddBookComponent&#45;&gt;AppModule</title>
<path fill="none" stroke="black" d="M4689,-85.05C4689,-107.82 4689,-143.8 4689,-143.8 4689,-143.8 2652.71,-143.8 2652.71,-143.8"/>
<polygon fill="black" stroke="black" points="2652.71,-140.3 2642.71,-143.8 2652.71,-147.3 2652.71,-140.3"/>
</g>
<!-- AdminComponent -->
<g id="node4" class="node">
<title>AdminComponent</title>
<polygon fill="#ffffb3" stroke="black" points="4603.22,-84.8 4482.78,-84.8 4482.78,-48.8 4603.22,-48.8 4603.22,-84.8"/>
<text text-anchor="middle" x="4543" y="-62.6" font-family="Times,serif" font-size="14.00">AdminComponent</text>
</g>
<!-- AdminComponent&#45;&gt;AppModule -->
<g id="edge4" class="edge">
<title>AdminComponent&#45;&gt;AppModule</title>
<path fill="none" stroke="black" d="M4543,-84.96C4543,-107.15 4543,-141.8 4543,-141.8 4543,-141.8 2652.91,-141.8 2652.91,-141.8"/>
<polygon fill="black" stroke="black" points="2652.91,-138.3 2642.91,-141.8 2652.91,-145.3 2652.91,-138.3"/>
</g>
<!-- AppComponent -->
<g id="node5" class="node">
<title>AppComponent</title>
<polygon fill="#ffffb3" stroke="black" points="4464.94,-84.8 4359.06,-84.8 4359.06,-48.8 4464.94,-48.8 4464.94,-84.8"/>
<text text-anchor="middle" x="4412" y="-62.6" font-family="Times,serif" font-size="14.00">AppComponent</text>
</g>
<!-- AppComponent&#45;&gt;AppModule -->
<g id="edge5" class="edge">
<title>AppComponent&#45;&gt;AppModule</title>
<path fill="none" stroke="black" d="M4412,-84.84C4412,-106.46 4412,-139.8 4412,-139.8 4412,-139.8 2652.66,-139.8 2652.66,-139.8"/>
<polygon fill="black" stroke="black" points="2652.66,-136.3 2642.66,-139.8 2652.66,-143.3 2652.66,-136.3"/>
</g>
<!-- AuthorDetailsComponent -->
<g id="node6" class="node">
<title>AuthorDetailsComponent</title>
<polygon fill="#ffffb3" stroke="black" points="4341.15,-84.8 4180.85,-84.8 4180.85,-48.8 4341.15,-48.8 4341.15,-84.8"/>
<text text-anchor="middle" x="4261" y="-62.6" font-family="Times,serif" font-size="14.00">AuthorDetailsComponent</text>
</g>
<!-- AuthorDetailsComponent&#45;&gt;AppModule -->
<g id="edge6" class="edge">
<title>AuthorDetailsComponent&#45;&gt;AppModule</title>
<path fill="none" stroke="black" d="M4261,-85.08C4261,-106.12 4261,-137.8 4261,-137.8 4261,-137.8 2652.86,-137.8 2652.86,-137.8"/>
<polygon fill="black" stroke="black" points="2652.86,-134.3 2642.86,-137.8 2652.86,-141.3 2652.86,-134.3"/>
</g>
<!-- AuthorDialogComponent -->
<g id="node7" class="node">
<title>AuthorDialogComponent</title>
<polygon fill="#ffffb3" stroke="black" points="4162.6,-84.8 4003.4,-84.8 4003.4,-48.8 4162.6,-48.8 4162.6,-84.8"/>
<text text-anchor="middle" x="4083" y="-62.6" font-family="Times,serif" font-size="14.00">AuthorDialogComponent</text>
</g>
<!-- AuthorDialogComponent&#45;&gt;AppModule -->
<g id="edge7" class="edge">
<title>AuthorDialogComponent&#45;&gt;AppModule</title>
<path fill="none" stroke="black" d="M4083,-84.93C4083,-105.37 4083,-135.8 4083,-135.8 4083,-135.8 2652.97,-135.8 2652.97,-135.8"/>
<polygon fill="black" stroke="black" points="2652.97,-132.3 2642.97,-135.8 2652.97,-139.3 2652.97,-132.3"/>
</g>
<!-- AuthorListComponent -->
<g id="node8" class="node">
<title>AuthorListComponent</title>
<polygon fill="#ffffb3" stroke="black" points="3985.27,-84.8 3842.73,-84.8 3842.73,-48.8 3985.27,-48.8 3985.27,-84.8"/>
<text text-anchor="middle" x="3914" y="-62.6" font-family="Times,serif" font-size="14.00">AuthorListComponent</text>
</g>
<!-- AuthorListComponent&#45;&gt;AppModule -->
<g id="edge8" class="edge">
<title>AuthorListComponent&#45;&gt;AppModule</title>
<path fill="none" stroke="black" d="M3890.2,-84.97C3890.2,-103.89 3890.2,-130.8 3890.2,-130.8 3890.2,-130.8 2652.8,-130.8 2652.8,-130.8"/>
<polygon fill="black" stroke="black" points="2652.8,-127.3 2642.8,-130.8 2652.8,-134.3 2652.8,-127.3"/>
</g>
<!-- AuthorListComponent&#45;&gt;AppModule -->
<g id="edge9" class="edge">
<title>AuthorListComponent&#45;&gt;AppModule</title>
<path fill="none" stroke="black" d="M3937.8,-85.11C3937.8,-104.95 3937.8,-133.8 3937.8,-133.8 3937.8,-133.8 2652.84,-133.8 2652.84,-133.8"/>
<polygon fill="black" stroke="black" points="2652.84,-130.3 2642.84,-133.8 2652.84,-137.3 2652.84,-130.3"/>
</g>
<!-- AuthorsListComponentComponent -->
<g id="node9" class="node">
<title>AuthorsListComponentComponent</title>
<polygon fill="#ffffb3" stroke="black" points="3824.55,-84.8 3611.45,-84.8 3611.45,-48.8 3824.55,-48.8 3824.55,-84.8"/>
<text text-anchor="middle" x="3718" y="-62.6" font-family="Times,serif" font-size="14.00">AuthorsListComponentComponent</text>
</g>
<!-- AuthorsListComponentComponent&#45;&gt;AppModule -->
<g id="edge10" class="edge">
<title>AuthorsListComponentComponent&#45;&gt;AppModule</title>
<path fill="none" stroke="black" d="M3718,-85.07C3718,-103.36 3718,-128.8 3718,-128.8 3718,-128.8 2652.75,-128.8 2652.75,-128.8"/>
<polygon fill="black" stroke="black" points="2652.75,-125.3 2642.75,-128.8 2652.75,-132.3 2652.75,-125.3"/>
</g>
<!-- BookComponent -->
<g id="node10" class="node">
<title>BookComponent</title>
<polygon fill="#ffffb3" stroke="black" points="3592.67,-84.8 3481.33,-84.8 3481.33,-48.8 3592.67,-48.8 3592.67,-84.8"/>
<text text-anchor="middle" x="3537" y="-62.6" font-family="Times,serif" font-size="14.00">BookComponent</text>
</g>
<!-- BookComponent&#45;&gt;AppModule -->
<g id="edge11" class="edge">
<title>BookComponent&#45;&gt;AppModule</title>
<path fill="none" stroke="black" d="M3537,-84.8C3537,-102.48 3537,-126.8 3537,-126.8 3537,-126.8 2652.73,-126.8 2652.73,-126.8"/>
<polygon fill="black" stroke="black" points="2652.73,-123.3 2642.73,-126.8 2652.73,-130.3 2652.73,-123.3"/>
</g>
<!-- BookDetailsComponent -->
<g id="node11" class="node">
<title>BookDetailsComponent</title>
<polygon fill="#ffffb3" stroke="black" points="3463.82,-84.8 3312.18,-84.8 3312.18,-48.8 3463.82,-48.8 3463.82,-84.8"/>
<text text-anchor="middle" x="3388" y="-62.6" font-family="Times,serif" font-size="14.00">BookDetailsComponent</text>
</g>
<!-- BookDetailsComponent&#45;&gt;AppModule -->
<g id="edge12" class="edge">
<title>BookDetailsComponent&#45;&gt;AppModule</title>
<path fill="none" stroke="black" d="M3388,-84.83C3388,-101.86 3388,-124.8 3388,-124.8 3388,-124.8 2652.76,-124.8 2652.76,-124.8"/>
<polygon fill="black" stroke="black" points="2652.76,-121.3 2642.76,-124.8 2652.76,-128.3 2652.76,-121.3"/>
</g>
<!-- BookDialogComponent -->
<g id="node12" class="node">
<title>BookDialogComponent</title>
<polygon fill="#ffffb3" stroke="black" points="3293.77,-84.8 3144.23,-84.8 3144.23,-48.8 3293.77,-48.8 3293.77,-84.8"/>
<text text-anchor="middle" x="3219" y="-62.6" font-family="Times,serif" font-size="14.00">BookDialogComponent</text>
</g>
<!-- BookDialogComponent&#45;&gt;AppModule -->
<g id="edge13" class="edge">
<title>BookDialogComponent&#45;&gt;AppModule</title>
<path fill="none" stroke="black" d="M3219,-84.83C3219,-101.2 3219,-122.8 3219,-122.8 3219,-122.8 2652.99,-122.8 2652.99,-122.8"/>
<polygon fill="black" stroke="black" points="2652.99,-119.3 2642.99,-122.8 2652.99,-126.3 2652.99,-119.3"/>
</g>
<!-- BookShelfComponent -->
<g id="node13" class="node">
<title>BookShelfComponent</title>
<polygon fill="#ffffb3" stroke="black" points="3126.72,-84.8 2985.28,-84.8 2985.28,-48.8 3126.72,-48.8 3126.72,-84.8"/>
<text text-anchor="middle" x="3056" y="-62.6" font-family="Times,serif" font-size="14.00">BookShelfComponent</text>
</g>
<!-- BookShelfComponent&#45;&gt;AppModule -->
<g id="edge14" class="edge">
<title>BookShelfComponent&#45;&gt;AppModule</title>
<path fill="none" stroke="black" d="M3056,-85.08C3056,-100.75 3056,-120.8 3056,-120.8 3056,-120.8 2652.99,-120.8 2652.99,-120.8"/>
<polygon fill="black" stroke="black" points="2652.99,-117.3 2642.99,-120.8 2652.99,-124.3 2652.99,-117.3"/>
</g>
<!-- BooksComponent -->
<g id="node14" class="node">
<title>BooksComponent</title>
<polygon fill="#ffffb3" stroke="black" points="2967.62,-84.8 2850.38,-84.8 2850.38,-48.8 2967.62,-48.8 2967.62,-84.8"/>
<text text-anchor="middle" x="2909" y="-62.6" font-family="Times,serif" font-size="14.00">BooksComponent</text>
</g>
<!-- BooksComponent&#45;&gt;AppModule -->
<g id="edge15" class="edge">
<title>BooksComponent&#45;&gt;AppModule</title>
<path fill="none" stroke="black" d="M2909,-84.99C2909,-99.98 2909,-118.8 2909,-118.8 2909,-118.8 2652.86,-118.8 2652.86,-118.8"/>
<polygon fill="black" stroke="black" points="2652.86,-115.3 2642.86,-118.8 2652.86,-122.3 2652.86,-115.3"/>
</g>
<!-- CategoriesComponent -->
<g id="node15" class="node">
<title>CategoriesComponent</title>
<polygon fill="#ffffb3" stroke="black" points="2832.7,-84.8 2691.3,-84.8 2691.3,-48.8 2832.7,-48.8 2832.7,-84.8"/>
<text text-anchor="middle" x="2762" y="-62.6" font-family="Times,serif" font-size="14.00">CategoriesComponent</text>
</g>
<!-- CategoriesComponent&#45;&gt;AppModule -->
<g id="edge16" class="edge">
<title>CategoriesComponent&#45;&gt;AppModule</title>
<path fill="none" stroke="black" d="M2762,-84.85C2762,-99.17 2762,-116.8 2762,-116.8 2762,-116.8 2652.88,-116.8 2652.88,-116.8"/>
<polygon fill="black" stroke="black" points="2652.88,-113.3 2642.88,-116.8 2652.88,-120.3 2652.88,-113.3"/>
</g>
<!-- EditAuthorComponent -->
<g id="node16" class="node">
<title>EditAuthorComponent</title>
<polygon fill="#ffffb3" stroke="black" points="2673.32,-84.8 2528.68,-84.8 2528.68,-48.8 2673.32,-48.8 2673.32,-84.8"/>
<text text-anchor="middle" x="2601" y="-62.6" font-family="Times,serif" font-size="14.00">EditAuthorComponent</text>
</g>
<!-- EditAuthorComponent&#45;&gt;AppModule -->
<g id="edge17" class="edge">
<title>EditAuthorComponent&#45;&gt;AppModule</title>
<path fill="none" stroke="black" d="M2601,-84.91C2601,-84.91 2601,-103.79 2601,-103.79"/>
<polygon fill="black" stroke="black" points="2597.5,-103.79 2601,-113.79 2604.5,-103.79 2597.5,-103.79"/>
</g>
<!-- EditBookComponent1 -->
<g id="node17" class="node">
<title>EditBookComponent1</title>
<polygon fill="#ffffb3" stroke="black" points="2511,-84.8 2369,-84.8 2369,-48.8 2511,-48.8 2511,-84.8"/>
<text text-anchor="middle" x="2440" y="-62.6" font-family="Times,serif" font-size="14.00">EditBookComponent1</text>
</g>
<!-- EditBookComponent1&#45;&gt;AppModule -->
<g id="edge18" class="edge">
<title>EditBookComponent1&#45;&gt;AppModule</title>
<path fill="none" stroke="black" d="M2440,-84.85C2440,-99.17 2440,-116.8 2440,-116.8 2440,-116.8 2549.12,-116.8 2549.12,-116.8"/>
<polygon fill="black" stroke="black" points="2549.12,-120.3 2559.12,-116.8 2549.12,-113.3 2549.12,-120.3"/>
</g>
<!-- FooterComponent -->
<g id="node18" class="node">
<title>FooterComponent</title>
<polygon fill="#ffffb3" stroke="black" points="2350.88,-84.8 2233.12,-84.8 2233.12,-48.8 2350.88,-48.8 2350.88,-84.8"/>
<text text-anchor="middle" x="2292" y="-62.6" font-family="Times,serif" font-size="14.00">FooterComponent</text>
</g>
<!-- FooterComponent&#45;&gt;AppModule -->
<g id="edge19" class="edge">
<title>FooterComponent&#45;&gt;AppModule</title>
<path fill="none" stroke="black" d="M2292,-84.99C2292,-99.98 2292,-118.8 2292,-118.8 2292,-118.8 2549.33,-118.8 2549.33,-118.8"/>
<polygon fill="black" stroke="black" points="2549.33,-122.3 2559.33,-118.8 2549.33,-115.3 2549.33,-122.3"/>
</g>
<!-- GetCategoryByIdComponent -->
<g id="node19" class="node">
<title>GetCategoryByIdComponent</title>
<polygon fill="#ffffb3" stroke="black" points="2215.36,-84.8 2034.64,-84.8 2034.64,-48.8 2215.36,-48.8 2215.36,-84.8"/>
<text text-anchor="middle" x="2125" y="-62.6" font-family="Times,serif" font-size="14.00">GetCategoryByIdComponent</text>
</g>
<!-- GetCategoryByIdComponent&#45;&gt;AppModule -->
<g id="edge20" class="edge">
<title>GetCategoryByIdComponent&#45;&gt;AppModule</title>
<path fill="none" stroke="black" d="M2125,-85.08C2125,-100.75 2125,-120.8 2125,-120.8 2125,-120.8 2549.18,-120.8 2549.18,-120.8"/>
<polygon fill="black" stroke="black" points="2549.18,-124.3 2559.18,-120.8 2549.18,-117.3 2549.18,-124.3"/>
</g>
<!-- GetCategouryComponent -->
<g id="node20" class="node">
<title>GetCategouryComponent</title>
<polygon fill="#ffffb3" stroke="black" points="2016.86,-84.8 1857.14,-84.8 1857.14,-48.8 2016.86,-48.8 2016.86,-84.8"/>
<text text-anchor="middle" x="1937" y="-62.6" font-family="Times,serif" font-size="14.00">GetCategouryComponent</text>
</g>
<!-- GetCategouryComponent&#45;&gt;AppModule -->
<g id="edge21" class="edge">
<title>GetCategouryComponent&#45;&gt;AppModule</title>
<path fill="none" stroke="black" d="M1937,-84.83C1937,-101.2 1937,-122.8 1937,-122.8 1937,-122.8 2549.21,-122.8 2549.21,-122.8"/>
<polygon fill="black" stroke="black" points="2549.21,-126.3 2559.21,-122.8 2549.21,-119.3 2549.21,-126.3"/>
</g>
<!-- HomeComponent -->
<g id="node21" class="node">
<title>HomeComponent</title>
<polygon fill="#ffffb3" stroke="black" points="1838.55,-84.8 1723.45,-84.8 1723.45,-48.8 1838.55,-48.8 1838.55,-84.8"/>
<text text-anchor="middle" x="1781" y="-62.6" font-family="Times,serif" font-size="14.00">HomeComponent</text>
</g>
<!-- HomeComponent&#45;&gt;AppModule -->
<g id="edge22" class="edge">
<title>HomeComponent&#45;&gt;AppModule</title>
<path fill="none" stroke="black" d="M1781,-84.83C1781,-101.86 1781,-124.8 1781,-124.8 1781,-124.8 2549.21,-124.8 2549.21,-124.8"/>
<polygon fill="black" stroke="black" points="2549.21,-128.3 2559.21,-124.8 2549.21,-121.3 2549.21,-128.3"/>
</g>
<!-- LoginComponent -->
<g id="node22" class="node">
<title>LoginComponent</title>
<polygon fill="#ffffb3" stroke="black" points="1705.27,-84.8 1590.73,-84.8 1590.73,-48.8 1705.27,-48.8 1705.27,-84.8"/>
<text text-anchor="middle" x="1648" y="-62.6" font-family="Times,serif" font-size="14.00">LoginComponent</text>
</g>
<!-- LoginComponent&#45;&gt;AppModule -->
<g id="edge23" class="edge">
<title>LoginComponent&#45;&gt;AppModule</title>
<path fill="none" stroke="black" d="M1648,-84.8C1648,-102.48 1648,-126.8 1648,-126.8 1648,-126.8 2549.13,-126.8 2549.13,-126.8"/>
<polygon fill="black" stroke="black" points="2549.13,-130.3 2559.13,-126.8 2549.13,-123.3 2549.13,-130.3"/>
</g>
<!-- LoginRedirectDialogComponent -->
<g id="node23" class="node">
<title>LoginRedirectDialogComponent</title>
<polygon fill="#ffffb3" stroke="black" points="1572.3,-84.8 1371.7,-84.8 1371.7,-48.8 1572.3,-48.8 1572.3,-84.8"/>
<text text-anchor="middle" x="1472" y="-62.6" font-family="Times,serif" font-size="14.00">LoginRedirectDialogComponent</text>
</g>
<!-- LoginRedirectDialogComponent&#45;&gt;AppModule -->
<g id="edge24" class="edge">
<title>LoginRedirectDialogComponent&#45;&gt;AppModule</title>
<path fill="none" stroke="black" d="M1472,-85.07C1472,-103.36 1472,-128.8 1472,-128.8 1472,-128.8 2549.14,-128.8 2549.14,-128.8"/>
<polygon fill="black" stroke="black" points="2549.14,-132.3 2559.14,-128.8 2549.14,-125.3 2549.14,-132.3"/>
</g>
<!-- NavbarComponent -->
<g id="node24" class="node">
<title>NavbarComponent</title>
<polygon fill="#ffffb3" stroke="black" points="1354.03,-84.8 1231.97,-84.8 1231.97,-48.8 1354.03,-48.8 1354.03,-84.8"/>
<text text-anchor="middle" x="1293" y="-62.6" font-family="Times,serif" font-size="14.00">NavbarComponent</text>
</g>
<!-- NavbarComponent&#45;&gt;AppModule -->
<g id="edge25" class="edge">
<title>NavbarComponent&#45;&gt;AppModule</title>
<path fill="none" stroke="black" d="M1293,-84.97C1293,-103.89 1293,-130.8 1293,-130.8 1293,-130.8 2549.33,-130.8 2549.33,-130.8"/>
<polygon fill="black" stroke="black" points="2549.33,-134.3 2559.33,-130.8 2549.33,-127.3 2549.33,-134.3"/>
</g>
<!-- NotFoundComponent -->
<g id="node25" class="node">
<title>NotFoundComponent</title>
<polygon fill="#ffffb3" stroke="black" points="1214.12,-84.8 1075.88,-84.8 1075.88,-48.8 1214.12,-48.8 1214.12,-84.8"/>
<text text-anchor="middle" x="1145" y="-62.6" font-family="Times,serif" font-size="14.00">NotFoundComponent</text>
</g>
<!-- NotFoundComponent&#45;&gt;AppModule -->
<g id="edge26" class="edge">
<title>NotFoundComponent&#45;&gt;AppModule</title>
<path fill="none" stroke="black" d="M1145,-85.11C1145,-104.95 1145,-133.8 1145,-133.8 1145,-133.8 2548.99,-133.8 2548.99,-133.8"/>
<polygon fill="black" stroke="black" points="2549,-137.3 2558.99,-133.8 2548.99,-130.3 2549,-137.3"/>
</g>
<!-- ProfileComponent -->
<g id="node26" class="node">
<title>ProfileComponent</title>
<polygon fill="#ffffb3" stroke="black" points="1057.94,-84.8 938.06,-84.8 938.06,-48.8 1057.94,-48.8 1057.94,-84.8"/>
<text text-anchor="middle" x="998" y="-62.6" font-family="Times,serif" font-size="14.00">ProfileComponent</text>
</g>
<!-- ProfileComponent&#45;&gt;AppModule -->
<g id="edge27" class="edge">
<title>ProfileComponent&#45;&gt;AppModule</title>
<path fill="none" stroke="black" d="M998,-84.93C998,-105.37 998,-135.8 998,-135.8 998,-135.8 2548.95,-135.8 2548.95,-135.8"/>
<polygon fill="black" stroke="black" points="2548.95,-139.3 2558.95,-135.8 2548.95,-132.3 2548.95,-139.3"/>
</g>
<!-- RatingComponent -->
<g id="node27" class="node">
<title>RatingComponent</title>
<polygon fill="#ffffb3" stroke="black" points="920.16,-84.8 801.84,-84.8 801.84,-48.8 920.16,-48.8 920.16,-84.8"/>
<text text-anchor="middle" x="861" y="-62.6" font-family="Times,serif" font-size="14.00">RatingComponent</text>
</g>
<!-- RatingComponent&#45;&gt;AppModule -->
<g id="edge28" class="edge">
<title>RatingComponent&#45;&gt;AppModule</title>
<path fill="none" stroke="black" d="M861,-85.08C861,-106.12 861,-137.8 861,-137.8 861,-137.8 2549.28,-137.8 2549.28,-137.8"/>
<polygon fill="black" stroke="black" points="2549.28,-141.3 2559.28,-137.8 2549.28,-134.3 2549.28,-141.3"/>
</g>
<!-- RegisterComponent -->
<g id="node28" class="node">
<title>RegisterComponent</title>
<polygon fill="#ffffb3" stroke="black" points="783.99,-84.8 656.01,-84.8 656.01,-48.8 783.99,-48.8 783.99,-84.8"/>
<text text-anchor="middle" x="720" y="-62.6" font-family="Times,serif" font-size="14.00">RegisterComponent</text>
</g>
<!-- RegisterComponent&#45;&gt;AppModule -->
<g id="edge29" class="edge">
<title>RegisterComponent&#45;&gt;AppModule</title>
<path fill="none" stroke="black" d="M720,-84.84C720,-106.46 720,-139.8 720,-139.8 720,-139.8 2549.08,-139.8 2549.08,-139.8"/>
<polygon fill="black" stroke="black" points="2549.08,-143.3 2559.08,-139.8 2549.08,-136.3 2549.08,-143.3"/>
</g>
<!-- ShelfItemComponent -->
<g id="node29" class="node">
<title>ShelfItemComponent</title>
<polygon fill="#ffffb3" stroke="black" points="638.04,-84.8 501.96,-84.8 501.96,-48.8 638.04,-48.8 638.04,-84.8"/>
<text text-anchor="middle" x="570" y="-62.6" font-family="Times,serif" font-size="14.00">ShelfItemComponent</text>
</g>
<!-- ShelfItemComponent&#45;&gt;AppModule -->
<g id="edge30" class="edge">
<title>ShelfItemComponent&#45;&gt;AppModule</title>
<path fill="none" stroke="black" d="M570,-84.96C570,-107.15 570,-141.8 570,-141.8 570,-141.8 2549.05,-141.8 2549.05,-141.8"/>
<polygon fill="black" stroke="black" points="2549.05,-145.3 2559.05,-141.8 2549.05,-138.3 2549.05,-145.3"/>
</g>
<!-- UserLibraryComponent -->
<g id="node30" class="node">
<title>UserLibraryComponent</title>
<polygon fill="#ffffb3" stroke="black" points="483.75,-84.8 334.25,-84.8 334.25,-48.8 483.75,-48.8 483.75,-84.8"/>
<text text-anchor="middle" x="409" y="-62.6" font-family="Times,serif" font-size="14.00">UserLibraryComponent</text>
</g>
<!-- UserLibraryComponent&#45;&gt;AppModule -->
<g id="edge31" class="edge">
<title>UserLibraryComponent&#45;&gt;AppModule</title>
<path fill="none" stroke="black" d="M409,-85.05C409,-107.82 409,-143.8 409,-143.8 409,-143.8 2549.17,-143.8 2549.17,-143.8"/>
<polygon fill="black" stroke="black" points="2549.17,-147.3 2559.17,-143.8 2549.17,-140.3 2549.17,-147.3"/>
</g>
<!-- AppComponent  -->
<g id="node33" class="node">
<title>AppComponent </title>
<polygon fill="#80b1d3" stroke="black" points="2655.44,-214.8 2546.56,-214.8 2546.56,-178.8 2655.44,-178.8 2655.44,-214.8"/>
<text text-anchor="middle" x="2601" y="-192.6" font-family="Times,serif" font-size="14.00">AppComponent </text>
</g>
<!-- AppModule&#45;&gt;AppComponent  -->
<g id="edge33" class="edge">
<title>AppModule&#45;&gt;AppComponent </title>
<path fill="none" stroke="black" stroke-dasharray="1,5" d="M2601,-149.91C2601,-149.91 2601,-168.79 2601,-168.79"/>
<polygon fill="black" stroke="black" points="2597.5,-168.79 2601,-178.79 2604.5,-168.79 2597.5,-168.79"/>
</g>
<!-- AppRoutingModule -->
<g id="node32" class="node">
<title>AppRoutingModule</title>
<polygon fill="#8dd3c7" stroke="black" points="152.28,-84.8 149.28,-88.8 128.28,-88.8 125.28,-84.8 23.72,-84.8 23.72,-48.8 152.28,-48.8 152.28,-84.8"/>
<text text-anchor="middle" x="88" y="-62.6" font-family="Times,serif" font-size="14.00">AppRoutingModule</text>
</g>
<!-- AppRoutingModule&#45;&gt;AppModule -->
<g id="edge32" class="edge">
<title>AppRoutingModule&#45;&gt;AppModule</title>
<path fill="none" stroke="black" d="M88,-85.18C88,-109.08 88,-147.8 88,-147.8 88,-147.8 2549.22,-147.8 2549.22,-147.8"/>
<polygon fill="black" stroke="black" points="2549.22,-151.3 2559.22,-147.8 2549.22,-144.3 2549.22,-151.3"/>
</g>
<!-- JwtInterceptor -->
<g id="node34" class="node">
<title>JwtInterceptor</title>
<ellipse fill="#fdb462" stroke="black" cx="243" cy="-66.8" rx="66.62" ry="18"/>
<text text-anchor="middle" x="243" y="-62.6" font-family="Times,serif" font-size="14.00">JwtInterceptor</text>
</g>
<!-- JwtInterceptor&#45;&gt;AppModule -->
<g id="edge34" class="edge">
<title>JwtInterceptor&#45;&gt;AppModule</title>
<path fill="none" stroke="black" d="M243,-85.12C243,-108.46 243,-145.8 243,-145.8 243,-145.8 2549.32,-145.8 2549.32,-145.8"/>
<polygon fill="black" stroke="black" points="2549.32,-149.3 2559.32,-145.8 2549.32,-142.3 2549.32,-149.3"/>
</g>
</g>
</svg>
